<?xml version="1.0" encoding="UTF-8" standalone="no"?>
<!DOCTYPE svg PUBLIC "-//W3C//DTD SVG 1.1//EN" "http://www.w3.org/Graphics/SVG/1.1/DTD/svg11.dtd">
<svg xmlns="http://www.w3.org/2000/svg" version="1.1" viewBox="0.00 0.00 1264.00 552.00">
<path fill="#ff9800" d="
  M 202.71 328.31
  Q 181.95 350.02 159.46 368.31
  C 145.53 379.64 129.05 390.91 112.15 395.85
  C 103.26 398.45 94.06 398.41 85.27 395.73
  C 67.82 390.40 52.24 377.58 46.64 359.96
  C 37.22 330.31 58.95 304.07 80.89 287.54
  Q 99.63 273.43 123.63 262.73
  Q 159.96 246.54 201.87 239.45
  A 1.12 1.10 -75.4 0 0 202.57 239.03
  Q 203.07 238.39 203.53 237.72
  Q 267.79 144.39 335.08 45.70
  A 0.39 0.39 0.0 0 1 335.72 45.70
  L 498.09 282.90
  Q 498.41 283.37 498.08 283.84
  L 335.77 518.47
  Q 335.43 518.95 335.10 518.47
  L 203.60 328.38
  A 0.58 0.58 0.0 0 0 202.71 328.31
  Z
  M 245.81 252.27
  Q 218.48 280.58 189.62 306.88
  A 0.86 0.85 -39.0 0 0 189.50 308.00
  L 202.80 327.23
  A 0.68 0.67 50.0 0 0 203.84 327.33
  C 227.36 303.48 250.22 277.83 272.07 253.42
  C 272.92 252.48 273.96 252.34 275.17 252.33
  Q 287.89 252.28 298.87 253.98
  Q 299.55 254.08 299.24 254.70
  C 289.51 274.05 278.63 294.33 270.08 314.57
  C 264.94 326.74 260.61 339.51 259.28 352.49
  Q 257.57 369.12 267.56 382.18
  C 275.54 392.60 287.99 398.57 301.03 395.88
  C 310.95 393.83 320.20 386.41 325.71 378.06
  Q 328.33 374.08 325.58 370.71
  C 323.20 367.81 319.75 368.75 317.11 370.70
  C 311.74 374.65 302.89 379.81 296.00 379.45
  C 284.54 378.84 288.54 355.61 289.78 348.90
  C 295.09 320.03 306.20 292.25 317.65 264.35
  Q 318.52 262.23 319.80 260.00
  Q 320.05 259.57 320.53 259.69
  Q 340.08 264.66 358.33 273.81
  Q 358.89 274.09 358.71 274.70
  C 356.54 281.81 357.98 289.09 363.19 294.35
  C 370.90 302.14 380.48 308.88 390.14 314.92
  C 397.01 319.23 402.86 326.19 394.55 333.26
  Q 384.28 342.00 370.73 338.79
  Q 367.20 337.96 365.37 334.72
  A 1.64 1.63 -30.7 0 1 365.93 332.53
  C 370.45 329.70 375.26 322.65 368.80 318.80
  Q 367.16 317.83 365.31 317.58
  Q 355.46 316.26 347.79 319.73
  C 339.44 323.50 335.26 333.08 338.88 341.69
  C 345.71 357.94 372.34 356.42 385.77 353.35
  C 425.37 344.29 457.27 318.64 477.24 282.90
  C 480.06 277.86 482.02 271.61 478.10 266.57
  C 476.28 264.23 473.28 264.07 471.71 266.59
  C 459.11 286.70 443.77 305.42 425.56 320.49
  Q 424.00 321.78 424.16 319.76
  C 424.83 310.94 421.05 303.51 414.60 297.19
  Q 412.40 295.03 406.56 291.41
  C 399.18 286.83 392.25 282.34 386.36 275.91
  C 381.75 270.87 385.37 267.07 390.41 265.45
  C 394.69 264.09 402.14 262.22 406.62 263.99
  A 2.42 2.42 0.0 0 1 408.12 266.59
  C 407.67 269.60 404.81 272.94 402.73 274.94
  C 401.58 276.05 401.02 277.78 401.71 279.31
  C 403.82 284.01 408.96 283.70 413.18 282.48
  C 421.64 280.04 430.42 275.16 432.39 266.32
  Q 433.68 260.51 430.49 256.21
  C 425.62 249.66 417.38 247.51 409.36 247.22
  Q 394.06 246.67 380.50 252.82
  Q 370.44 257.39 365.24 263.09
  Q 364.85 263.52 364.37 263.21
  Q 347.41 252.58 326.88 246.46
  Q 326.32 246.30 326.59 245.78
  C 340.06 219.14 355.22 191.95 373.39 169.80
  C 377.15 165.22 374.37 158.73 371.81 154.27
  C 366.87 145.68 359.23 136.40 349.49 134.91
  C 344.99 134.22 342.33 137.80 339.54 140.63
  Q 339.17 141.01 339.62 141.28
  L 344.11 144.04
  A 1.01 1.01 0.0 0 1 344.45 145.41
  C 339.63 153.61 333.00 160.97 326.84 167.84
  C 305.88 191.19 285.02 213.86 262.64 235.44
  Q 262.30 235.76 261.83 235.74
  Q 231.70 234.57 203.03 239.33
  A 1.10 1.09 -77.6 0 0 202.32 239.79
  L 186.94 262.17
  Q 186.52 262.77 187.20 262.50
  Q 189.65 261.53 192.14 260.78
  Q 218.69 252.84 245.59 251.79
  Q 246.30 251.76 245.81 252.27
  Z
  M 172.76 282.88
  L 186.45 262.99
  Q 186.87 262.38 186.17 262.61
  Q 136.34 279.08 97.85 311.44
  Q 86.04 321.37 76.82 333.78
  C 71.14 341.44 66.40 350.90 68.06 360.77
  C 71.02 378.31 92.20 373.38 103.09 368.77
  Q 119.59 361.78 137.23 349.29
  Q 163.88 330.43 188.58 307.66
  Q 189.00 307.27 188.68 306.80
  L 172.76 283.81
  Q 172.44 283.35 172.76 282.88
  Z"
/>
<path fill="#ff9800" d="
  M 733.90 246.80
  Q 723.64 268.93 722.19 292.21
  C 720.53 318.73 735.30 339.55 762.53 340.96
  C 786.58 342.21 809.11 329.66 826.73 312.93
  C 843.80 296.71 857.60 275.69 864.13 253.23
  C 867.83 240.51 869.48 225.16 864.89 213.09
  C 855.65 188.80 828.40 189.20 809.80 202.37
  C 790.75 215.86 777.93 238.18 778.31 261.79
  C 778.47 271.62 782.75 284.63 791.67 289.89
  Q 794.18 291.37 796.97 292.63
  C 799.39 293.73 800.84 296.97 799.96 299.53
  Q 798.10 304.95 791.85 303.55
  C 773.92 299.57 761.42 285.21 758.65 267.26
  C 755.93 249.64 761.40 230.98 771.46 216.45
  C 785.90 195.60 808.92 180.98 834.39 180.58
  C 849.83 180.34 863.38 186.07 872.04 198.99
  C 880.57 211.73 881.68 228.31 879.48 243.05
  C 875.71 268.32 862.90 292.26 846.00 311.66
  C 823.46 337.52 789.28 359.14 753.67 352.79
  C 724.33 347.56 705.59 324.99 703.66 295.84
  C 698.99 225.09 758.05 154.05 831.29 156.99
  C 842.56 157.44 854.93 161.02 863.51 168.36
  C 866.13 170.61 868.91 175.39 866.86 178.74
  C 864.86 182.00 860.16 180.80 857.49 179.06
  C 854.09 176.84 851.06 174.25 847.21 172.70
  Q 841.41 170.36 835.33 169.91
  C 818.12 168.63 801.59 174.31 787.18 183.50
  C 763.84 198.39 745.72 221.27 733.90 246.80
  Z"
/>
<path fill="#ff9800" d="
  M 335.05 183.65
  L 305.05 240.22
  Q 304.81 240.67 304.31 240.60
  L 286.81 237.96
  Q 286.36 237.90 286.66 237.57
  Q 310.98 211.00 334.49 183.95
  Q 334.72 183.69 335.03 183.63
  Q 335.06 183.62 335.05 183.65
  Z"
/>
<path fill="#ff9800" d="
  M 554.78 327.97
  Q 555.22 325.32 553.59 327.46
  C 546.82 336.37 535.25 348.12 523.72 349.74
  C 516.69 350.73 509.72 347.46 506.04 341.37
  C 502.15 334.94 503.30 325.98 505.86 319.17
  Q 515.83 292.60 538.70 278.36
  C 547.18 273.08 560.21 269.70 569.18 275.12
  Q 569.78 275.49 570.04 274.83
  Q 575.90 259.82 583.45 242.38
  Q 590.42 226.29 598.49 214.50
  Q 601.15 210.61 604.91 208.06
  C 610.65 204.18 617.29 209.06 616.09 215.42
  Q 615.14 220.40 611.91 227.18
  Q 601.89 248.20 592.20 268.21
  Q 582.83 287.53 577.03 307.93
  C 575.23 314.25 574.22 320.94 573.81 327.53
  Q 573.58 331.06 574.22 334.34
  A 1.69 1.68 -8.1 0 0 576.03 335.69
  C 583.28 335.01 590.13 328.54 594.66 322.80
  Q 596.50 320.47 597.38 317.08
  C 602.22 298.33 624.01 273.92 645.38 274.13
  C 651.20 274.18 658.18 276.86 659.39 283.35
  C 661.52 294.85 655.48 304.36 646.43 311.38
  Q 632.51 322.18 613.25 325.01
  A 0.84 0.84 0.0 0 0 612.53 325.79
  C 612.05 333.04 614.44 340.70 622.95 341.44
  C 640.64 342.96 656.92 326.91 665.48 312.62
  Q 667.15 309.82 670.23 310.92
  Q 670.77 311.11 671.17 311.53
  Q 673.13 313.57 671.87 316.10
  C 661.67 336.62 641.79 353.66 618.17 351.86
  Q 601.76 350.62 596.49 335.72
  A 0.34 0.33 -33.8 0 0 595.93 335.61
  C 588.28 343.98 575.59 352.12 563.83 348.30
  C 556.04 345.77 553.57 335.29 554.78 327.97
  Z
  M 565.25 285.52
  C 544.29 277.57 527.10 308.28 523.57 324.11
  C 522.56 328.68 522.36 337.19 530.11 334.35
  Q 536.27 332.10 542.17 325.70
  C 552.70 314.28 559.77 300.90 565.60 286.30
  Q 565.82 285.74 565.25 285.52
  Z
  M 632.38 291.09
  C 625.04 297.79 619.87 305.82 615.70 314.97
  A 0.41 0.41 0.0 0 0 616.19 315.53
  Q 633.04 310.37 643.17 297.68
  Q 647.69 292.02 647.31 285.74
  A 1.29 1.28 -0.7 0 0 646.07 284.54
  C 640.93 284.37 636.10 287.69 632.38 291.09
  Z"
/>
<path fill="#ff9800" d="
  M 1059.10 291.50
  C 1063.25 284.19 1072.01 263.53 1081.13 262.23
  C 1084.72 261.72 1086.92 265.24 1086.08 268.42
  Q 1085.40 271.02 1083.73 273.06
  Q 1075.34 283.35 1066.82 293.29
  Q 1065.00 295.41 1062.45 296.32
  C 1059.17 297.49 1057.59 294.15 1059.10 291.50
  Z"
/>
<path fill="#ff9800" d="
  M 933.19 331.65
  A 0.42 0.42 0.0 0 0 932.44 331.52
  C 925.37 342.01 913.57 352.20 899.88 347.65
  C 894.79 345.96 890.44 341.63 889.82 336.21
  C 888.92 328.32 893.13 319.35 896.96 312.64
  Q 902.47 302.98 909.01 292.25
  Q 909.34 291.71 908.72 291.58
  Q 900.43 289.92 895.82 296.24
  C 890.07 304.10 884.27 311.57 877.46 318.56
  C 870.78 325.42 863.13 329.81 854.10 332.38
  Q 844.05 335.24 833.77 335.65
  Q 833.71 335.66 833.70 335.60
  L 833.66 335.27
  Q 833.64 335.13 833.77 335.11
  Q 869.83 327.34 885.71 295.08
  A 0.67 0.67 0.0 0 0 885.50 294.25
  C 878.93 289.46 878.05 280.99 882.68 274.43
  C 885.31 270.71 891.33 265.74 896.33 266.18
  Q 899.60 266.47 899.42 269.63
  C 899.28 272.22 896.35 274.41 897.41 277.18
  A 1.95 1.94 76.2 0 0 899.46 278.43
  Q 913.96 276.77 926.14 271.87
  C 929.10 270.68 933.51 271.72 931.51 276.01
  Q 920.00 300.71 908.73 324.48
  Q 907.78 326.49 907.40 329.65
  C 906.85 334.26 910.19 336.35 914.32 334.68
  Q 920.49 332.19 924.39 326.33
  C 930.57 317.02 934.09 306.98 938.60 297.49
  C 945.87 282.16 960.64 270.53 977.69 267.98
  Q 988.38 266.38 997.48 270.65
  C 1011.47 277.20 1016.20 290.89 1012.87 305.45
  Q 1010.67 315.08 1005.28 323.93
  A 0.44 0.43 21.1 0 0 1005.57 324.58
  Q 1010.20 325.51 1013.89 322.71
  Q 1018.97 318.85 1023.58 313.99
  Q 1035.49 301.43 1045.28 285.53
  Q 1046.72 283.21 1048.53 281.60
  A 0.76 0.76 0.0 0 1 1049.53 281.60
  Q 1054.41 285.90 1051.05 291.68
  Q 1037.56 314.82 1017.21 333.44
  C 1011.14 338.99 1002.44 342.07 995.45 336.27
  Q 995.01 335.90 994.58 336.28
  C 986.68 343.19 976.68 348.50 966.20 349.77
  C 954.26 351.23 942.33 346.65 935.55 336.71
  Q 933.89 334.28 933.19 331.65
  Z
  M 986.57 323.25
  C 983.05 311.74 988.29 299.69 995.55 290.11
  A 1.15 1.12 61.3 0 0 995.78 289.29
  C 994.98 281.41 989.85 274.49 981.02 276.85
  Q 976.95 277.95 973.46 280.67
  C 960.21 291.00 950.31 313.03 953.91 329.68
  C 954.92 334.37 957.80 338.74 962.52 340.14
  C 971.91 342.92 981.67 331.40 986.44 324.19
  Q 986.73 323.75 986.57 323.25
  Z"
/>
<path fill="#ff9800" d="
  M 1138.24 324.55
  Q 1140.02 323.48 1141.60 322.12
  Q 1160.84 305.62 1176.25 281.13
  A 2.20 2.20 0.0 0 1 1179.53 280.61
  C 1183.25 283.74 1181.60 289.31 1179.65 292.85
  Q 1158.87 330.67 1119.43 344.86
  C 1107.90 349.01 1091.19 352.13 1079.75 346.38
  C 1072.36 342.66 1069.05 334.34 1073.96 327.31
  C 1078.20 321.24 1087.34 320.00 1093.80 321.56
  C 1095.91 322.07 1097.83 324.11 1097.12 326.48
  C 1096.36 329.05 1094.50 330.65 1092.47 332.25
  A 1.50 1.49 55.8 0 0 1092.11 334.17
  Q 1093.94 337.25 1097.28 337.93
  Q 1108.97 340.34 1117.04 332.18
  C 1121.22 327.93 1119.07 322.86 1114.98 319.94
  C 1106.79 314.09 1098.25 308.86 1091.34 301.92
  C 1084.60 295.16 1087.29 284.35 1093.56 278.11
  C 1101.69 270.04 1114.53 266.25 1125.71 266.37
  C 1132.31 266.44 1139.34 268.04 1143.26 273.59
  Q 1144.84 275.83 1144.63 278.66
  C 1144.06 286.35 1137.54 290.17 1130.75 292.42
  C 1127.68 293.45 1123.37 294.21 1121.68 290.67
  A 2.33 2.33 0.0 0 1 1122.17 287.99
  Q 1124.35 285.89 1126.04 283.05
  C 1127.73 280.23 1126.21 277.86 1122.99 277.77
  Q 1115.48 277.56 1109.87 280.47
  C 1102.84 284.11 1109.74 290.29 1113.31 293.05
  Q 1119.60 297.91 1126.36 301.88
  C 1134.15 306.46 1139.21 315.13 1137.80 324.25
  Q 1137.70 324.87 1138.24 324.55
  Z"
/>
</svg>
